<?xml version="1.0" encoding="UTF-8"?>
<svg width="800" height="450" viewBox="0 0 800 450" xmlns="http://www.w3.org/2000/svg">
  <defs>
    <linearGradient id="aiGrad" x1="0%" y1="0%" x2="100%" y2="100%">
      <stop offset="0%" style="stop-color:#4F46E5;stop-opacity:1" />
      <stop offset="100%" style="stop-color:#7C3AED;stop-opacity:1" />
    </linearGradient>
    <filter id="glow">
      <feGaussianBlur stdDeviation="3" result="coloredBlur"/>
      <feMerge>
        <feMergeNode in="coloredBlur"/>
        <feMergeNode in="SourceGraphic"/>
      </feMerge>
    </filter>
  </defs>
  
  <!-- Background -->
  <rect width="800" height="450" fill="url(#aiGrad)"/>
  
  <!-- Neural Network Visualization -->
  <g transform="translate(250,100)" filter="url(#glow)">
    <!-- Nodes -->
    <circle cx="150" cy="50" r="8" fill="white" opacity="0.9"/>
    <circle cx="150" cy="100" r="8" fill="white" opacity="0.9"/>
    <circle cx="150" cy="150" r="8" fill="white" opacity="0.9"/>
    <circle cx="150" cy="200" r="8" fill="white" opacity="0.9"/>
    
    <circle cx="300" cy="75" r="8" fill="white" opacity="0.9"/>
    <circle cx="300" cy="125" r="8" fill="white" opacity="0.9"/>
    <circle cx="300" cy="175" r="8" fill="white" opacity="0.9"/>
    
    <circle cx="450" cy="125" r="8" fill="white" opacity="0.9"/>
    
    <!-- Connections -->
    <g opacity="0.3" stroke="white" stroke-width="1">
      <line x1="150" y1="50" x2="300" y2="75"/>
      <line x1="150" y1="50" x2="300" y2="125"/>
      <line x1="150" y1="100" x2="300" y2="75"/>
      <line x1="150" y1="100" x2="300" y2="125"/>
      <line x1="150" y1="150" x2="300" y2="125"/>
      <line x1="150" y1="150" x2="300" y2="175"/>
      <line x1="150" y1="200" x2="300" y2="125"/>
      <line x1="150" y1="200" x2="300" y2="175"/>
      
      <line x1="300" y1="75" x2="450" y2="125"/>
      <line x1="300" y1="125" x2="450" y2="125"/>
      <line x1="300" y1="175" x2="450" y2="125"/>
    </g>
  </g>
  
  <!-- Floating Particles -->
  <g fill="white" opacity="0.2">
    <circle cx="100" cy="100" r="3"/>
    <circle cx="700" cy="350" r="2"/>
    <circle cx="200" cy="400" r="4"/>
    <circle cx="600" cy="150" r="3"/>
    <circle cx="400" cy="50" r="2"/>
  </g>
</svg>
