<?xml version="1.0" encoding="UTF-8"?>
<svg width="800" height="450" viewBox="0 0 800 450" xmlns="http://www.w3.org/2000/svg">
  <defs>
    <linearGradient id="cloudGrad" x1="0%" y1="0%" x2="100%" y2="100%">
      <stop offset="0%" style="stop-color:#0EA5E9;stop-opacity:1" />
      <stop offset="100%" style="stop-color:#2563EB;stop-opacity:1" />
    </linearGradient>
    <filter id="cloudGlow">
      <feGaussianBlur stdDeviation="3" result="coloredBlur"/>
      <feMerge>
        <feMergeNode in="coloredBlur"/>
        <feMergeNode in="SourceGraphic"/>
      </feMerge>
    </filter>
  </defs>
  
  <!-- Background -->
  <rect width="800" height="450" fill="url(#cloudGrad)"/>
  
  <!-- Cloud Infrastructure -->
  <g transform="translate(200,100)" filter="url(#cloudGlow)">
    <!-- Server Racks -->
    <g transform="translate(0,0)" opacity="0.9">
      <rect x="50" y="50" width="80" height="200" rx="5" fill="white" opacity="0.8"/>
      <rect x="150" y="50" width="80" height="200" rx="5" fill="white" opacity="0.8"/>
      <rect x="250" y="50" width="80" height="200" rx="5" fill="white" opacity="0.8"/>
      
      <!-- Server Details -->
      <g fill="url(#cloudGrad)" opacity="0.5">
        <rect x="60" y="70" width="60" height="10" rx="2"/>
        <rect x="60" y="90" width="60" height="10" rx="2"/>
        <rect x="60" y="110" width="60" height="10" rx="2"/>
        
        <rect x="160" y="70" width="60" height="10" rx="2"/>
        <rect x="160" y="90" width="60" height="10" rx="2"/>
        <rect x="160" y="110" width="60" height="10" rx="2"/>
        
        <rect x="260" y="70" width="60" height="10" rx="2"/>
        <rect x="260" y="90" width="60" height="10" rx="2"/>
        <rect x="260" y="110" width="60" height="10" rx="2"/>
      </g>
    </g>
    
    <!-- Connection Lines -->
    <g stroke="white" stroke-width="2" opacity="0.3">
      <path d="M90,30 Q190,-20 290,30" fill="none"/>
      <path d="M90,270 Q190,320 290,270" fill="none"/>
    </g>
  </g>
  
  <!-- Floating Elements -->
  <g fill="white" opacity="0.2">
    <circle cx="100" cy="100" r="3"/>
    <circle cx="700" cy="350" r="2"/>
    <circle cx="200" cy="400" r="4"/>
    <circle cx="600" cy="150" r="3"/>
    <circle cx="400" cy="50" r="2"/>
  </g>
</svg>
