<?xml version="1.0" encoding="UTF-8"?>
<svg width="800" height="450" viewBox="0 0 800 450" xmlns="http://www.w3.org/2000/svg">
  <defs>
    <linearGradient id="mobileGrad" x1="0%" y1="0%" x2="100%" y2="100%">
      <stop offset="0%" style="stop-color:#F59E0B;stop-opacity:1" />
      <stop offset="100%" style="stop-color:#EA580C;stop-opacity:1" />
    </linearGradient>
    <filter id="mobileGlow">
      <feGaussianBlur stdDeviation="3" result="coloredBlur"/>
      <feMerge>
        <feMergeNode in="coloredBlur"/>
        <feMergeNode in="SourceGraphic"/>
      </feMerge>
    </filter>
  </defs>
  
  <!-- Background -->
  <rect width="800" height="450" fill="url(#mobileGrad)"/>
  
  <!-- Mobile Devices -->
  <g transform="translate(200,50)" filter="url(#mobileGlow)">
    <!-- Tablet -->
    <rect x="50" y="50" width="200" height="300" rx="20" 
          fill="white" opacity="0.9"/>
    <rect x="60" y="60" width="180" height="280" rx="15" 
          fill="url(#mobileGrad)" opacity="0.2"/>
    
    <!-- Phone -->
    <g transform="translate(300,100)">
      <rect x="0" y="0" width="100" height="200" rx="15" 
            fill="white" opacity="0.9"/>
      <rect x="5" y="5" width="90" height="190" rx="12" 
            fill="url(#mobileGrad)" opacity="0.2"/>
      <circle cx="50" cy="180" r="10" 
              fill="url(#mobileGrad)" opacity="0.3"/>
    </g>
  </g>
  
  <!-- App Icons -->
  <g transform="translate(270,120)" opacity="0.9">
    <rect x="0" y="0" width="40" height="40" rx="10" fill="white" opacity="0.6"/>
    <rect x="50" y="0" width="40" height="40" rx="10" fill="white" opacity="0.6"/>
    <rect x="100" y="0" width="40" height="40" rx="10" fill="white" opacity="0.6"/>
    
    <rect x="0" y="50" width="40" height="40" rx="10" fill="white" opacity="0.6"/>
    <rect x="50" y="50" width="40" height="40" rx="10" fill="white" opacity="0.6"/>
    <rect x="100" y="50" width="40" height="40" rx="10" fill="white" opacity="0.6"/>
  </g>
  
  <!-- Floating Elements -->
  <g fill="white" opacity="0.2">
    <circle cx="100" cy="100" r="3"/>
    <circle cx="700" cy="350" r="2"/>
    <circle cx="200" cy="400" r="4"/>
    <circle cx="600" cy="150" r="3"/>
    <circle cx="400" cy="50" r="2"/>
  </g>
</svg>
