<?xml version="1.0" encoding="UTF-8"?>
<svg width="800" height="450" viewBox="0 0 800 450" xmlns="http://www.w3.org/2000/svg">
  <defs>
    <linearGradient id="securityGrad" x1="0%" y1="0%" x2="100%" y2="100%">
      <stop offset="0%" style="stop-color:#059669;stop-opacity:1" />
      <stop offset="100%" style="stop-color:#0D9488;stop-opacity:1" />
    </linearGradient>
    <filter id="securityGlow">
      <feGaussianBlur stdDeviation="3" result="coloredBlur"/>
      <feMerge>
        <feMergeNode in="coloredBlur"/>
        <feMergeNode in="SourceGraphic"/>
      </feMerge>
    </filter>
  </defs>
  
  <!-- Background -->
  <rect width="800" height="450" fill="url(#securityGrad)"/>
  
  <!-- Shield Design -->
  <g transform="translate(250,75)" filter="url(#securityGlow)">
    <path d="M150,25 L300,25 L300,175 L150,300 L0,175 L0,25 Z" 
          fill="white" opacity="0.9"/>
    
    <!-- Inner Shield Pattern -->
    <path d="M150,50 L275,50 L275,162.5 L150,262.5 L25,162.5 L25,50 Z" 
          fill="url(#securityGrad)" opacity="0.3"/>
    
    <!-- Lock Icon -->
    <g transform="translate(75,100)">
      <rect x="25" y="30" width="100" height="80" rx="10" 
            fill="url(#securityGrad)" opacity="0.8"/>
      <rect x="45" y="0" width="60" height="50" rx="25" 
            fill="url(#securityGrad)" opacity="0.8"
            stroke="white" stroke-width="8"/>
    </g>
  </g>
  
  <!-- Circuit Board Pattern -->
  <g stroke="white" stroke-width="1" opacity="0.2">
    <path d="M50,50 L150,50 L150,150" fill="none"/>
    <path d="M650,400 L750,400 L750,300" fill="none"/>
    <path d="M50,400 L150,400 L150,300" fill="none"/>
    <path d="M650,50 L750,50 L750,150" fill="none"/>
  </g>
  
  <!-- Floating Elements -->
  <g fill="white" opacity="0.2">
    <circle cx="100" cy="100" r="3"/>
    <circle cx="700" cy="350" r="2"/>
    <circle cx="200" cy="400" r="4"/>
    <circle cx="600" cy="150" r="3"/>
    <circle cx="400" cy="50" r="2"/>
  </g>
</svg>
