<?xml version="1.0" encoding="UTF-8"?>
<svg width="800" height="450" viewBox="0 0 800 450" xmlns="http://www.w3.org/2000/svg">
  <defs>
    <linearGradient id="cityGrad" x1="0%" y1="0%" x2="100%" y2="100%">
      <stop offset="0%" style="stop-color:#0EA5E9;stop-opacity:1" />
      <stop offset="100%" style="stop-color:#2563EB;stop-opacity:1" />
    </linearGradient>
    <filter id="cityGlow">
      <feGaussianBlur stdDeviation="3" result="coloredBlur"/>
      <feMerge>
        <feMergeNode in="coloredBlur"/>
        <feMergeNode in="SourceGraphic"/>
      </feMerge>
    </filter>
  </defs>
  
  <!-- Background -->
  <rect width="800" height="450" fill="url(#cityGrad)"/>
  
  <!-- City Skyline -->
  <g transform="translate(100,50)" filter="url(#cityGlow)">
    <!-- Buildings -->
    <g fill="white" opacity="0.9">
      <rect x="0" y="100" width="40" height="250"/>
      <rect x="60" y="150" width="40" height="200"/>
      <rect x="120" y="50" width="40" height="300"/>
      <rect x="180" y="120" width="40" height="230"/>
      <rect x="240" y="80" width="40" height="270"/>
      <rect x="300" y="180" width="40" height="170"/>
      <rect x="360" y="100" width="40" height="250"/>
      <rect x="420" y="150" width="40" height="200"/>
      <rect x="480" y="70" width="40" height="280"/>
      <rect x="540" y="130" width="40" height="220"/>
    </g>
    
    <!-- Windows -->
    <g fill="url(#cityGrad)" opacity="0.3">
      <g transform="translate(10,120)">
        <rect width="20" height="20" x="0" y="0"/>
        <rect width="20" height="20" x="0" y="40"/>
        <rect width="20" height="20" x="0" y="80"/>
        <rect width="20" height="20" x="0" y="120"/>
      </g>
      <g transform="translate(70,170)">
        <rect width="20" height="20" x="0" y="0"/>
        <rect width="20" height="20" x="0" y="40"/>
        <rect width="20" height="20" x="0" y="80"/>
        <rect width="20" height="20" x="0" y="120"/>
      </g>
      <!-- More windows for other buildings -->
    </g>
  </g>
  
  <!-- Connected Dots (IoT) -->
  <g transform="translate(50,50)" stroke="white" opacity="0.6">
    <circle cx="100" cy="100" r="4" fill="white"/>
    <circle cx="200" cy="150" r="4" fill="white"/>
    <circle cx="300" cy="80" r="4" fill="white"/>
    <circle cx="400" cy="120" r="4" fill="white"/>
    <circle cx="500" cy="90" r="4" fill="white"/>
    
    <line x1="100" y1="100" x2="200" y2="150" stroke-width="1"/>
    <line x1="200" y1="150" x2="300" y2="80" stroke-width="1"/>
    <line x1="300" y1="80" x2="400" y2="120" stroke-width="1"/>
    <line x1="400" y1="120" x2="500" y2="90" stroke-width="1"/>
  </g>
  
  <!-- Stats -->
  <g transform="translate(50,350)" fill="white" opacity="0.9">
    <text x="0" y="0" font-family="Arial" font-size="24" font-weight="bold">3M+</text>
    <text x="0" y="30" font-family="Arial" font-size="16" opacity="0.7">IoT Devices</text>
  </g>
  
  <g transform="translate(350,350)" fill="white" opacity="0.9">
    <text x="0" y="0" font-family="Arial" font-size="24" font-weight="bold">12</text>
    <text x="0" y="30" font-family="Arial" font-size="16" opacity="0.7">Cities</text>
  </g>
  
  <g transform="translate(650,350)" fill="white" opacity="0.9">
    <text x="0" y="0" font-family="Arial" font-size="24" font-weight="bold">40%</text>
    <text x="0" y="30" font-family="Arial" font-size="16" opacity="0.7">Cost Reduction</text>
  </g>
</svg>
