<?xml version="1.0" encoding="UTF-8"?>
<svg width="800" height="450" viewBox="0 0 800 450" xmlns="http://www.w3.org/2000/svg">
  <defs>
    <linearGradient id="tradingGrad" x1="0%" y1="0%" x2="100%" y2="100%">
      <stop offset="0%" style="stop-color:#4F46E5;stop-opacity:1" />
      <stop offset="100%" style="stop-color:#7C3AED;stop-opacity:1" />
    </linearGradient>
    <filter id="glow">
      <feGaussianBlur stdDeviation="3" result="coloredBlur"/>
      <feMerge>
        <feMergeNode in="coloredBlur"/>
        <feMergeNode in="SourceGraphic"/>
      </feMerge>
    </filter>
  </defs>
  
  <!-- Background -->
  <rect width="800" height="450" fill="url(#tradingGrad)"/>
  
  <!-- Trading Chart -->
  <g transform="translate(100,50)" filter="url(#glow)">
    <!-- Chart Grid -->
    <g stroke="white" stroke-width="0.5" opacity="0.2">
      <line x1="0" y1="0" x2="600" y2="0" />
      <line x1="0" y1="100" x2="600" y2="100" />
      <line x1="0" y1="200" x2="600" y2="200" />
      <line x1="0" y1="300" x2="600" y2="300" />
    </g>
    
    <!-- Chart Line -->
    <path d="M0,150 C100,100 200,200 300,50 C400,150 500,100 600,200" 
          fill="none" stroke="white" stroke-width="3" opacity="0.9"/>
    
    <!-- Data Points -->
    <g fill="white">
      <circle cx="0" cy="150" r="4"/>
      <circle cx="100" cy="100" r="4"/>
      <circle cx="200" cy="200" r="4"/>
      <circle cx="300" cy="50" r="4"/>
      <circle cx="400" cy="150" r="4"/>
      <circle cx="500" cy="100" r="4"/>
      <circle cx="600" cy="200" r="4"/>
    </g>
  </g>
  
  <!-- Floating Elements -->
  <g fill="white" opacity="0.2">
    <circle cx="100" cy="100" r="3"/>
    <circle cx="700" cy="350" r="2"/>
    <circle cx="200" cy="400" r="4"/>
    <circle cx="600" cy="150" r="3"/>
    <circle cx="400" cy="50" r="2"/>
  </g>
  
  <!-- Stats -->
  <g transform="translate(50,350)" fill="white" opacity="0.9">
    <text x="0" y="0" font-family="Arial" font-size="24" font-weight="bold">50K+</text>
    <text x="0" y="30" font-family="Arial" font-size="16" opacity="0.7">Users</text>
  </g>
  
  <g transform="translate(350,350)" fill="white" opacity="0.9">
    <text x="0" y="0" font-family="Arial" font-size="24" font-weight="bold">$2B+</text>
    <text x="0" y="30" font-family="Arial" font-size="16" opacity="0.7">Transactions</text>
  </g>
  
  <g transform="translate(650,350)" fill="white" opacity="0.9">
    <text x="0" y="0" font-family="Arial" font-size="24" font-weight="bold">94%</text>
    <text x="0" y="30" font-family="Arial" font-size="16" opacity="0.7">Accuracy</text>
  </g>
</svg>
