<svg xmlns="http://www.w3.org/2000/svg" viewBox="0 0 24 24"><path fill="#FF9900" d="M6.763 10.036c0 .296.032.535.088.71.064.176.144.368.256.576.04.063.056.127.056.183 0 .08-.048.16-.152.24l-.503.335a.383.383 0 0 1-.208.072c-.08 0-.16-.04-.239-.112a2.47 2.47 0 0 1-.287-.375 6.18 6.18 0 0 1-.248-.471c-.622.734-1.405 1.101-2.347 1.101-.67 0-1.205-.191-1.596-.574-.391-.384-.59-.894-.59-1.533 0-.678.216-1.23.64-1.654.43-.43 1.004-.645 1.733-.645.24 0 .49.021.744.064.256.04.52.104.807.184v-.512c0-.534-.115-.92-.344-1.152-.23-.231-.622-.351-1.179-.351-.25 0-.506.032-.766.096-.261.064-.517.144-.77.24-.118.048-.206.072-.27.072-.09 0-.135-.056-.135-.168V6.34c0-.088.016-.16.048-.224.032-.064.112-.12.232-.168.29-.144.642-.264 1.058-.36.415-.096.86-.144 1.334-.144.999 0 1.73.216 2.197.648.464.432.697 1.086.697 1.962v2.582zm-3.24.864c.241 0 .492-.048.75-.144.262-.096.495-.264.7-.504.12-.144.208-.32.256-.524.048-.208.072-.432.072-.672v-.352a5.786 5.786 0 0 0-.628-.144 5.406 5.406 0 0 0-.672-.048c-.479 0-.83.104-1.061.312-.232.208-.348.496-.348.864 0 .352.088.624.264.816.176.192.424.288.747.288zm5.664.144c-.118 0-.214-.039-.286-.119-.073-.08-.11-.175-.11-.288v-7.04c0-.112.037-.2.11-.272a.373.373 0 0 1 .286-.12h1.164c.118 0 .214.04.286.12.072.08.11.175.11.288v7.04c0 .112-.038.2-.11.272a.373.373 0 0 1-.286.12h-1.164zm8.36-.144c-.774 0-1.454-.168-2.039-.504v.456c0 .112-.037.2-.111.272a.373.373 0 0 1-.287.12h-1.164a.373.373 0 0 1-.286-.12c-.073-.08-.11-.175-.11-.288V3.382c0-.112.037-.2.11-.272a.373.373 0 0 1 .286-.12h1.164c.118 0 .214.04.287.12.072.08.11.175.11.288v3.784c.63-.432 1.31-.648 2.04-.648.774 0 1.454.168 2.038.504.584.336 1.038.816 1.358 1.44.32.624.48 1.344.48 2.16 0 .816-.16 1.536-.48 2.16-.32.624-.774 1.104-1.358 1.44-.584.336-1.264.504-2.038.504zm-.36-.864c.262 0 .514-.048.758-.144.243-.096.458-.24.646-.432.187-.192.334-.432.439-.72.104-.288.158-.616.158-.984 0-.368-.054-.696-.158-.984-.105-.288-.252-.528-.44-.72-.187-.192-.402-.336-.645-.432a2.322 2.322 0 0 0-.758-.144c-.263 0-.515.048-.759.144-.243.096-.458.24-.645.432-.188.192-.335.432-.44.72-.104.288-.158.616-.158.984 0 .368.054.696.159.984.104.288.251.528.439.72.187.192.402.336.645.432.244.096.496.144.759.144z"/></svg>
