<?xml version="1.0" encoding="UTF-8"?>
<svg width="32" height="32" viewBox="0 0 32 32" fill="none" xmlns="http://www.w3.org/2000/svg">
  <rect width="32" height="32" rx="8" fill="#0A0F1C"/>
  <path d="M20.9 11.1C20.3 10.5 19.6 10.1 18.8 9.8C18 9.5 17.1 9.3 16.2 9.3C15.3 9.3 14.4 9.5 13.6 9.8C12.8 10.1 12.1 10.5 11.5 11.1C10.9 11.7 10.4 12.4 10.1 13.2C9.8 14 9.6 14.9 9.6 15.8C9.6 16.7 9.8 17.6 10.1 18.4C10.4 19.2 10.9 19.9 11.5 20.5C12.1 21.1 12.8 21.5 13.6 21.8C14.4 22.1 15.3 22.3 16.2 22.3C17.1 22.3 18 22.1 18.8 21.8C19.6 21.5 20.3 21.1 20.9 20.5L18.8 18.4C18.4 18.8 18 19.1 17.5 19.3C17 19.5 16.6 19.6 16.2 19.6C15.7 19.6 15.3 19.5 14.9 19.3C14.4 19.1 14 18.8 13.7 18.4C13.3 18 13.1 17.6 12.9 17.1C12.7 16.6 12.6 16.2 12.6 15.8C12.6 15.3 12.7 14.9 12.9 14.5C13.1 14 13.3 13.6 13.7 13.2C14 12.8 14.4 12.5 14.9 12.3C15.3 12.1 15.7 12 16.2 12C16.6 12 17 12.1 17.5 12.3C18 12.5 18.4 12.8 18.8 13.2L20.9 11.1Z" fill="#3B82F6"/>
</svg> 