<?xml version="1.0" encoding="UTF-8"?>
<svg width="32" height="32" viewBox="0 0 32 32" fill="none" xmlns="http://www.w3.org/2000/svg">
  <rect width="32" height="32" rx="8" fill="#0A0F1C"/>
  <path d="M21.5 12.2C21.1 11.4 20.5 10.8 19.7 10.4C18.9 10 18.1 9.8 17.1 9.8C16.1 9.8 15.2 10 14.4 10.4C13.6 10.8 13 11.4 12.6 12.2C12.2 13 12 13.9 12 15C12 15.9 12.2 16.7 12.6 17.4C13 18.1 13.6 18.7 14.4 19.1C15.2 19.5 16.1 19.7 17.1 19.7C18.1 19.7 19 19.5 19.8 19.1C20.6 18.7 21.2 18.1 21.6 17.4L19.5 16.2C19.3 16.6 19 16.9 18.6 17.1C18.2 17.3 17.7 17.4 17.1 17.4C16.5 17.4 16 17.3 15.6 17.1C15.2 16.9 14.9 16.6 14.7 16.2C14.5 15.8 14.4 15.4 14.4 15C14.4 14.4 14.5 13.9 14.8 13.5C15.1 13.1 15.4 12.8 15.9 12.6C16.4 12.4 16.9 12.3 17.5 12.3C18.1 12.3 18.6 12.4 19 12.6C19.4 12.8 19.7 13.1 19.9 13.5L21.5 12.2Z" fill="#3B82F6"/>
</svg> 